<svg width="59" height="62" viewBox="0 0 59 62" fill="none" xmlns="http://www.w3.org/2000/svg">
<path d="M2.26923 0C1.01888 0 0 1.07069 0 2.38462V40.5385C0 41.8524 1.01888 42.9231 2.26923 42.9231H38.5769C39.8273 42.9231 40.8462 41.8524 40.8462 40.5385V2.38462C40.8462 1.07069 39.8273 0 38.5769 0H2.26923ZM4.53846 4.76923H36.3077V33.3846H4.53846V4.76923ZM43.1154 6.92969V11.7728L47.2295 12.5192L43.1154 37.5577V40.5385C43.1154 43.1711 41.0799 45.3077 38.5769 45.3077H14.5367L43.3287 50.5252C43.9211 50.6333 44.5302 50.4898 45.022 50.1263C45.5139 49.7628 45.8483 49.209 45.9519 48.5865L52.0516 10.9549C52.1032 10.6464 52.0963 10.3303 52.0314 10.0246C51.9666 9.71891 51.845 9.42965 51.6736 9.17339C51.5023 8.91713 51.2845 8.69889 51.0328 8.53117C50.7811 8.36344 50.5004 8.24952 50.2067 8.19592L43.1154 6.93208V6.92969ZM20.4231 9.38823C17.8112 9.38823 15.601 11.2768 15.601 14.8299C15.601 17.1525 16.5858 19.4847 17.9405 20.9393C18.4715 22.3939 17.5684 22.9472 17.3732 23.0258C14.6365 24.0655 11.4165 25.9947 11.4165 27.869V30.9261H29.4297V27.8714C29.4297 25.9398 26.2028 24.0226 23.33 23.0258C23.1983 22.9805 22.3837 22.5966 22.9056 20.9393C24.2558 19.4847 25.3155 17.1406 25.3155 14.8299C25.3155 11.2768 23.035 9.38823 20.4231 9.38823V9.38823ZM53.1136 18.8552L52.3353 23.5481L53.9646 23.9201L47.7242 51.7915L46.8029 51.5673C46.2968 52.0913 45.6783 52.4799 44.9994 52.7003C44.3206 52.9206 43.6013 52.9663 42.9021 52.8335L11.4891 47.1701L10.8469 50.0054C10.7132 50.6272 10.8164 51.2793 11.1345 51.8221C11.4526 52.365 11.9603 52.7554 12.5488 52.9098L47.8649 61.6304C48.4566 61.7709 49.0772 61.6624 49.5937 61.3281C50.1103 60.9939 50.4818 60.4604 50.6288 59.8419L58.8593 22.7254C59.1475 21.4472 58.4508 20.1238 57.23 19.8185L53.1159 18.8504L53.1136 18.8552Z" fill="#C94F8E"/>
</svg>
