<svg width="35" height="33" viewBox="0 0 35 33" fill="none" xmlns="http://www.w3.org/2000/svg">
<g clip-path="url(#clip0_17020_27)">
<path d="M35 4.125C35 3.03098 34.5391 1.98177 33.7186 1.20818C32.8981 0.434597 31.7853 0 30.625 0L4.375 0C3.21468 0 2.10188 0.434597 1.28141 1.20818C0.460936 1.98177 0 3.03098 0 4.125L0 20.625C0 21.719 0.460936 22.7682 1.28141 23.5418C2.10188 24.3154 3.21468 24.75 4.375 24.75H25.3444C25.9245 24.7501 26.4808 24.9675 26.8909 25.3543L33.1319 31.2386C33.2847 31.3831 33.4796 31.4816 33.6918 31.5216C33.904 31.5616 34.1241 31.5413 34.3241 31.4634C34.5241 31.3854 34.6951 31.2533 34.8154 31.0837C34.9357 30.9141 35 30.7146 35 30.5106V4.125ZM17.5 8.23556C21.14 4.70662 30.2422 10.8818 17.5 18.8203C4.75781 10.8797 13.86 4.70662 17.5 8.23556Z" fill="#747474"/>
</g>
<defs>
<clipPath id="clip0_17020_27">
<rect width="35" height="33" fill="white"/>
</clipPath>
</defs>
</svg>
