<svg width="82" height="83" viewBox="0 0 82 83" fill="none" xmlns="http://www.w3.org/2000/svg">
<path d="M67.24 20.9782L61.2753 14.9408L41 35.4634L20.7263 14.9367L14.7625 20.9724L35.0361 41.5L14.76 62.0234L20.7247 68.0608L41 47.5382L61.272 68.0625L67.2367 62.0276L46.9639 41.5017L67.24 20.9782Z" fill="#F15B6C"/>
<path d="M61.272 68.8925C61.0547 68.8925 60.8456 68.8053 60.6923 68.6493L41 48.7119L21.3036 68.6476C20.983 68.9722 20.4647 68.9722 20.1441 68.6476L14.1794 62.6102C13.8588 62.2857 13.8588 61.7611 14.1794 61.4366L33.8766 41.5L14.1827 21.5593C13.8621 21.2347 13.8621 20.7093 14.1827 20.3856L20.1466 14.3507C20.3007 14.1947 20.509 14.1075 20.7263 14.1075C20.9436 14.1075 21.1527 14.1947 21.3061 14.3507L41 34.289L60.6956 14.3532C61.0162 14.0287 61.5344 14.0287 61.8551 14.3532L67.8197 20.3906C68.1404 20.7151 68.1404 21.2397 67.8197 21.5642L48.1233 41.5008L67.8165 61.4399C68.1371 61.7645 68.1371 62.2898 67.8165 62.6135L61.8526 68.6485C61.6984 68.8053 61.4893 68.8925 61.272 68.8925ZM41 46.7083C41.2173 46.7083 41.4264 46.7954 41.5797 46.9514L61.272 66.8889L66.0764 62.0276L46.3841 42.0885C46.0635 41.7639 46.0635 41.2394 46.3841 40.9149L66.0805 20.9783L61.2753 16.1145L41.5797 36.0502C41.4256 36.2063 41.2173 36.2934 41 36.2934C40.7827 36.2934 40.5736 36.2063 40.4203 36.0502L20.7263 16.1111L15.9219 20.9724L35.6167 40.9124C35.9373 41.2369 35.9373 41.7615 35.6167 42.086L15.9195 62.0234L20.7247 66.8872L40.4211 46.9514C40.5744 46.7954 40.7827 46.7083 41 46.7083Z" fill="#1F212B"/>
<path d="M61.09 62.25C60.9851 62.25 60.8801 62.2093 60.7997 62.1288L59.9797 61.2988C59.8198 61.137 59.8198 60.8739 59.9797 60.712C60.1396 60.5502 60.3996 60.5502 60.5595 60.712L61.3795 61.542C61.5394 61.7039 61.5394 61.967 61.3795 62.1288C61.2999 62.2093 61.195 62.25 61.09 62.25ZM58.63 59.76C58.5251 59.76 58.4201 59.7193 58.3397 59.6388L56.6997 57.9788C56.5398 57.817 56.5398 57.5539 56.6997 57.392C56.8596 57.2302 57.1196 57.2302 57.2795 57.392L58.9195 59.052C59.0794 59.2139 59.0794 59.477 58.9195 59.6388C58.8399 59.7193 58.735 59.76 58.63 59.76ZM55.35 56.44C55.2451 56.44 55.1401 56.3993 55.0597 56.3188L40.7097 41.7938C40.5498 41.632 40.5498 41.3689 40.7097 41.207L58.3397 23.362C58.4996 23.2002 58.7596 23.2002 58.9195 23.362C59.0794 23.5239 59.0794 23.787 58.9195 23.9488L41.5798 41.5L55.6395 55.7312C55.7994 55.893 55.7994 56.1561 55.6395 56.318C55.5599 56.3993 55.455 56.44 55.35 56.44ZM60.27 22.41C60.1651 22.41 60.0601 22.3693 59.9797 22.2888C59.8198 22.127 59.8198 21.8639 59.9797 21.702L60.7997 20.872C60.9596 20.7102 61.2196 20.7102 61.3795 20.872C61.5394 21.0339 61.5394 21.297 61.3795 21.4588L60.5595 22.2888C60.4799 22.3693 60.375 22.41 60.27 22.41ZM21.73 22.41C21.6251 22.41 21.5201 22.3693 21.4397 22.2888L20.6197 21.4588C20.4598 21.297 20.4598 21.0339 20.6197 20.872C20.7796 20.7102 21.0396 20.7102 21.1995 20.872L22.0195 21.702C22.1794 21.8639 22.1794 22.127 22.0195 22.2888C21.9399 22.3693 21.835 22.41 21.73 22.41ZM25.01 25.73C24.9051 25.73 24.8001 25.6893 24.7197 25.6088L23.0797 23.9488C22.9198 23.787 22.9198 23.5239 23.0797 23.362C23.2396 23.2002 23.4996 23.2002 23.6595 23.362L25.2995 25.022C25.4594 25.1839 25.4594 25.447 25.2995 25.6088C25.2199 25.6893 25.115 25.73 25.01 25.73Z" fill="#1F212B"/>
<path d="M23.37 59.76C23.2651 59.76 23.1601 59.7193 23.0797 59.6388C22.9198 59.477 22.9198 59.2139 23.0797 59.052L40.4203 41.5L26.3597 27.2688C26.1998 27.107 26.1998 26.8439 26.3597 26.682C26.5196 26.5202 26.7796 26.5202 26.9395 26.682L41.2895 41.207C41.4494 41.3689 41.4494 41.632 41.2895 41.7938L23.6595 59.6388C23.5799 59.7193 23.475 59.76 23.37 59.76ZM20.91 62.25C20.8051 62.25 20.7001 62.2093 20.6197 62.1288C20.4598 61.967 20.4598 61.7039 20.6197 61.542L21.4397 60.712C21.5996 60.5502 21.8596 60.5502 22.0195 60.712C22.1794 60.8739 22.1794 61.137 22.0195 61.2988L21.1995 62.1288C21.1199 62.2093 21.015 62.25 20.91 62.25Z" fill="#1F212B"/>
</svg>
