<svg width="40" height="40" viewBox="0 0 40 40" fill="none" xmlns="http://www.w3.org/2000/svg">
<path d="M4.99997 24.3333H8.3333V36C8.3333 36.442 8.5089 36.866 8.82146 37.1785C9.13402 37.4911 9.55794 37.6667 9.99997 37.6667H30C30.442 37.6667 30.8659 37.4911 31.1785 37.1785C31.491 36.866 31.6666 36.442 31.6666 36V24.3333H35C35.3221 24.3336 35.6373 24.2404 35.9074 24.0649C36.1776 23.8895 36.3909 23.6394 36.5216 23.345C36.6532 23.0508 36.6965 22.7247 36.6462 22.4063C36.5959 22.0879 36.4542 21.791 36.2383 21.5517L21.2383 4.88501C20.6066 4.18168 19.3933 4.18168 18.7616 4.88501L3.76164 21.5517C3.54612 21.7911 3.40462 22.0879 3.35424 22.4061C3.30387 22.7242 3.34679 23.0502 3.4778 23.3445C3.60882 23.6388 3.82232 23.8888 4.09246 24.0643C4.36261 24.2398 4.67783 24.3333 4.99997 24.3333ZM14.4216 20.4017C15.1154 19.7168 16.051 19.3328 17.0258 19.3328C18.0006 19.3328 18.9362 19.7168 19.63 20.4017L20.0033 20.7683L20.375 20.4017C21.069 19.7167 22.0049 19.3326 22.98 19.3326C23.9551 19.3326 24.891 19.7167 25.585 20.4017C25.9293 20.7329 26.2032 21.1302 26.3903 21.5698C26.5773 22.0094 26.6738 22.4823 26.6738 22.96C26.6738 23.4378 26.5773 23.9106 26.3903 24.3502C26.2032 24.7898 25.9293 25.1871 25.585 25.5183L20.0033 31L14.4216 25.5183C14.0773 25.1871 13.8034 24.7898 13.6163 24.3502C13.4293 23.9106 13.3328 23.4378 13.3328 22.96C13.3328 22.4823 13.4293 22.0094 13.6163 21.5698C13.8034 21.1302 14.0773 20.7329 14.4216 20.4017Z" fill="#747474"/>
</svg>
