<svg width="172" height="171" viewBox="0 0 172 171" fill="none" xmlns="http://www.w3.org/2000/svg">
<path d="M170.5 85.5C170.5 131.884 132.676 169.5 86 169.5C39.3237 169.5 1.5 131.884 1.5 85.5C1.5 39.1163 39.3237 1.5 86 1.5C132.676 1.5 170.5 39.1163 170.5 85.5Z" stroke="#05F0FF" stroke-opacity="0.31" stroke-width="3"/>
<path d="M170.5 85.5C170.5 131.884 132.676 169.5 86 169.5C39.3237 169.5 1.5 131.884 1.5 85.5C1.5 39.1163 39.3237 1.5 86 1.5C132.676 1.5 170.5 39.1163 170.5 85.5Z" stroke="#05F0FF" stroke-opacity="0.31" stroke-width="3"/>
<path d="M153.5 86C153.5 123.269 123.066 153.5 85.5 153.5C47.9344 153.5 17.5 123.269 17.5 86C17.5 48.731 47.9344 18.5 85.5 18.5C123.066 18.5 153.5 48.731 153.5 86Z" stroke="#05F0FF" stroke-opacity="0.31" stroke-width="3"/>
<path d="M153.5 86C153.5 123.269 123.066 153.5 85.5 153.5C47.9344 153.5 17.5 123.269 17.5 86C17.5 48.731 47.9344 18.5 85.5 18.5C123.066 18.5 153.5 48.731 153.5 86Z" stroke="#05F0FF" stroke-opacity="0.31" stroke-width="3"/>
<path d="M135.5 86C135.5 115.035 112.627 138.5 84.5 138.5C56.373 138.5 33.5 115.035 33.5 86C33.5 56.9649 56.373 33.5 84.5 33.5C112.627 33.5 135.5 56.9649 135.5 86Z" stroke="#05F0FF" stroke-opacity="0.31" stroke-width="3"/>
<path d="M135.5 86C135.5 115.035 112.627 138.5 84.5 138.5C56.373 138.5 33.5 115.035 33.5 86C33.5 56.9649 56.373 33.5 84.5 33.5C112.627 33.5 135.5 56.9649 135.5 86Z" stroke="#05F0FF" stroke-opacity="0.31" stroke-width="3"/>
<ellipse cx="86" cy="85.5" rx="34" ry="33.5" fill="#1EBAFD"/>
<path d="M64.875 85.5H106.125" stroke="white" stroke-width="2" stroke-linecap="round" stroke-linejoin="round"/>
<path d="M89.625 74.6667L106.125 85.5L89.625 96.3333" stroke="white" stroke-width="2" stroke-linecap="round" stroke-linejoin="round"/>
</svg>
