<svg width="171" height="204" viewBox="0 0 171 204" fill="none" xmlns="http://www.w3.org/2000/svg">
<path d="M84.7301 36.302C66.5257 20.3435 45.0471 14.5147 29.4194 23.3789C7.2685 35.9432 5.26146 73.2701 24.9366 106.751C37.8722 128.763 56.959 143.632 74.8125 147.665" stroke="#F15B6C" stroke-width="4" stroke-linecap="round" stroke-linejoin="round"/>
<path d="M65.0445 61.2507C45.3695 94.731 47.3763 132.058 69.5272 144.622C91.6781 157.187 125.585 140.231 145.26 106.751C164.935 73.2701 162.928 35.9433 140.777 23.3789C118.626 10.8144 84.7195 27.7702 65.0445 61.2507Z" stroke="#F15B6C" stroke-width="4" stroke-linecap="round" stroke-linejoin="round"/>
<path d="M25.44 194V169.987H27.142V194H25.44ZM36.0269 194V169.839H36.8409L52.6029 187.969C53.1702 188.61 53.6882 189.252 54.1569 189.893C54.6502 190.51 54.9092 190.83 54.9339 190.855C54.8846 190.263 54.8599 189.104 54.8599 187.377V169.987H56.5619V194.148H55.7479L39.6899 175.722L37.6549 173.243C37.7042 173.736 37.7289 174.896 37.7289 176.721V194H36.0269Z" fill="white"/>
<path d="M65.883 194V167.545H67.659V192.372H79.832V194H65.883ZM93.6908 194.37C90.2622 194.37 87.3885 193.174 85.0698 190.781C82.7512 188.388 81.5918 185.465 81.5918 182.012C81.5918 178.534 82.7512 175.599 85.0698 173.206C87.3885 170.813 90.2622 169.617 93.6908 169.617C97.1195 169.617 99.9932 170.813 102.312 173.206C104.631 175.599 105.79 178.534 105.79 182.012C105.79 185.465 104.631 188.388 102.312 190.781C99.9932 193.174 97.1195 194.37 93.6908 194.37ZM93.6908 171.134C90.7308 171.134 88.2642 172.182 86.2908 174.279C84.3422 176.376 83.3678 178.953 83.3678 182.012C83.3678 185.046 84.3422 187.611 86.2908 189.708C88.2642 191.78 90.7308 192.816 93.6908 192.816C96.6755 192.816 99.1422 191.78 101.091 189.708C103.04 187.611 104.014 185.046 104.014 182.012C104.014 178.953 103.04 176.376 101.091 174.279C99.1422 172.182 96.6755 171.134 93.6908 171.134ZM120.22 188.968L128.249 169.987H130.025L119.702 194.148H118.703L108.38 169.987H110.23L119.295 191.336C119.418 190.966 119.726 190.177 120.22 188.968ZM134.922 194V169.987H146.133V171.467H136.624V180.199H145.208V181.642H136.624V192.446H146.503V194H134.922Z" fill="#F15B6C"/>
</svg>
