<?xml version="1.0" encoding="iso-8859-1"?>
<!-- Generator: Adobe Illustrator 19.0.0, SVG Export Plug-In . SVG Version: 6.00 Build 0)  -->
<svg version="1.1" id="Layer_1" xmlns="http://www.w3.org/2000/svg" xmlns:xlink="http://www.w3.org/1999/xlink" x="0px" y="0px"
	 viewBox="0 0 448.02 448.02" style="enable-background:new 0 0 448.02 448.02;" xml:space="preserve">
<g transform="translate(0 -1020.36)" shape-rendering="auto" image-rendering="auto" color-rendering="auto" color-interpolation="sRGB">
	<path style="fill:#484666;" d="M128.055,1100.436c-57.34,0-104.045,46.59-104.045,103.934
		c0.033,30.154,15.266,56.109,34.603,77.242c53.662,58.639,159.315,183.891,159.315,183.891c2.836,3.396,7.889,3.852,11.286,1.016
		c0.314-0.262,0.608-0.549,0.878-0.855c0,0,113.14-128.611,167.582-192.158c16.459-19.211,26.297-43.486,26.336-69.092
		c0-57.344-46.704-103.934-104.045-103.934c-52.219,0-87.673,42.279-95.896,52.557c-8.223-10.277-43.795-52.557-96.014-52.557
		V1100.436z"/>
	<path style="fill:#D87070;" d="M128.055,1116.381c47.37,0,89.637,52.91,89.637,52.91c2.679,3.521,7.706,4.205,11.228,1.527
		c0.575-0.438,1.089-0.951,1.527-1.527c0,0,42.149-52.91,89.519-52.91c48.681,0,87.983,39.305,87.983,87.988
		c-0.032,21.508-8.246,42.014-22.438,58.58c-52.296,61.041-153.772,176.467-161.441,185.189
		c-7.575-8.975-101.473-120.383-153.646-177.395c-17.749-19.396-30.325-41.59-30.351-66.377c0-48.684,39.303-87.988,87.984-87.988
		L128.055,1116.381z"/>
	<path style="fill:#BD5858;" d="M218.197,1236.348c-13.159,0-23.969,10.809-23.969,23.969c0,10.329,6.708,19.125,15.938,22.469
		v41.531h15.938v-41.469c9.307-3.302,16.063-12.146,16.063-22.531C242.166,1247.157,231.356,1236.348,218.197,1236.348z"/>
	<path style="fill:#484666;" d="M224.069,1236.376c-13.159,0-23.974,10.816-23.974,23.977s10.815,23.975,23.974,23.975
		c13.159,0,23.974-10.814,23.974-23.975S237.228,1236.376,224.069,1236.376z"/>
	<path style="fill:#FFFFFF;" d="M224.069,1252.321c4.511,0,7.913,3.518,7.913,8.031c0,4.512-3.398,8.031-7.913,8.031
		c-4.511,0-8.031-3.518-8.031-8.031S219.558,1252.321,224.069,1252.321z"/>
	<g>
		<path style="fill:#484666;" d="M216.039,1276.415v47.951h15.943v-47.951H216.039z"/>
		<path style="fill:#484666;" d="M167.146,1020.36c-12.671,0-23.147,10.476-23.147,23.148v48.896h16.061v-48.896
			c0-4.027,3.06-7.086,7.086-7.086h113.729c4.027,0,7.204,3.061,7.204,7.086v48.896h15.943v-48.896
			c0-12.674-10.475-23.148-23.147-23.148H167.146z"/>
	</g>
	<path style="fill:#BD5858;" d="M128.062,1116.372c-1.558,0-3.086,0.176-4.625,0.256c45.898,2.541,86.054,52.654,86.054,52.654
		c2.458,3.248,6.961,4.137,10.468,2.063c-0.886-0.533-1.661-1.234-2.281-2.063c0,0-42.246-52.906-89.616-52.906L128.062,1116.372z
		 M319.98,1116.372c-1.197,0-2.372,0.191-3.562,0.256c46.497,2.42,83.335,40.633,83.335,87.746
		c-0.032,21.51-8.243,42.027-22.435,58.592c-50.59,59.051-144.074,165.426-157.266,180.432c0.444,0.527,3.777,4.447,4.031,4.75
		c7.669-8.723,109.125-124.139,161.422-185.182c14.193-16.564,22.403-37.084,22.435-58.592c0-48.682-39.279-87.996-87.96-87.996
		L319.98,1116.372z"/>
</g>
<g>
</g>
<g>
</g>
<g>
</g>
<g>
</g>
<g>
</g>
<g>
</g>
<g>
</g>
<g>
</g>
<g>
</g>
<g>
</g>
<g>
</g>
<g>
</g>
<g>
</g>
<g>
</g>
<g>
</g>
</svg>
