<svg width="372" height="388" viewBox="0 0 372 388" fill="none" xmlns="http://www.w3.org/2000/svg">
<ellipse cx="195" cy="210" rx="177" ry="178" fill="#494747"/>
<g clip-path="url(#clip0_16924_10)">
<path d="M177 356C274.754 356 354 276.307 354 178C354 79.6933 274.754 0 177 0C79.2456 0 0 79.6933 0 178C0 276.307 79.2456 356 177 356Z" fill="#FFA9CA"/>
<path d="M169.914 124.439L130.118 166.109V349.676C145.051 353.791 160.769 356 177 356C265.069 356 338.103 291.312 351.713 206.611L207.034 58.7337L185.633 74.9526L171.76 58.6211L162.808 71.6074L153.099 90.8725L232.797 173.273L217.406 172.198L169.914 124.439Z" fill="#FF80AA"/>
<path d="M120.903 287.104C147.763 289.858 173.443 283.414 194.861 270.317C192.839 253.769 176.342 253.167 159.374 249.031C134.915 243.069 145.984 213.473 145.984 213.473L111.117 209.896C111.117 209.896 116.019 241.13 90.8653 242.004C73.4177 242.609 57.1433 239.856 51.8416 255.646C70.186 272.823 94.0451 284.349 120.903 287.104Z" fill="#E8BC95"/>
<path d="M194.861 270.317C192.839 253.77 176.342 253.167 159.374 249.031C134.915 243.069 145.984 213.473 145.984 213.473L128.555 211.686L121.284 287.135C148.004 289.79 173.544 283.352 194.861 270.317Z" fill="#D8A987"/>
<path d="M180.548 167.244C177.891 193.448 153.008 228.341 126.951 225.669C100.895 222.996 83.5281 183.77 86.1865 157.565C88.845 131.36 112.123 112.283 138.179 114.956C164.237 117.629 183.206 141.039 180.548 167.244Z" fill="#F4E3C3"/>
<path d="M138.179 114.955C138.077 114.944 137.978 114.942 137.877 114.932L127.204 225.682C153.169 228.103 177.898 193.362 180.547 167.243C183.206 141.039 164.237 117.629 138.179 114.955Z" fill="#FED8B2"/>
<path d="M82.9203 166.358C83.6477 173.768 84.3377 183.544 93.409 194.211C93.409 194.211 92.1202 178.418 95.3733 169.432C98.757 165.357 102.004 157.661 103.517 143.36C103.517 143.36 135.7 174.755 170.584 182.077C170.39 191.105 167.278 201.788 167.278 201.788C173.718 196.761 178.043 189.03 180.531 183.465C181.751 183.544 182.97 183.589 184.188 183.594C184.188 183.594 197.396 116.669 138.52 111.598C101.186 108.386 79.8788 135.35 82.9203 166.358Z" fill="#E29734"/>
<path d="M138.52 111.6C138.413 111.591 138.309 111.589 138.202 111.58L132.963 165.941C143.956 172.782 157.063 179.24 170.584 182.078C170.39 191.106 167.278 201.789 167.278 201.789C173.718 196.762 178.043 189.031 180.531 183.466C181.751 183.545 182.97 183.59 184.188 183.595C184.187 183.597 197.395 116.671 138.52 111.6Z" fill="#D88A00"/>
<path d="M159.373 249.031C149.533 246.632 145.446 240.411 144.072 233.827C138.64 234.61 132.597 234.747 126.279 234.099C119.958 233.45 114.065 232.089 108.902 230.219C106.235 236.387 100.982 241.652 90.8632 242.004C73.4156 242.61 57.1413 239.856 51.8396 255.647L39.0762 289.549C71.5198 330.066 121.244 356 177 356C181.175 356 185.315 355.843 189.418 355.558L190.031 339.574L194.86 270.317C192.839 253.77 176.342 253.167 159.373 249.031Z" fill="#31BAFD"/>
<path d="M159.373 249.031C149.533 246.632 145.446 240.411 144.072 233.827C138.673 234.605 132.668 234.743 126.392 234.109L115.704 345.015C134.805 352.11 155.447 356 177 356C181.175 356 185.315 355.843 189.418 355.558L190.031 339.574L194.86 270.317C192.839 253.77 176.342 253.167 159.373 249.031Z" fill="#2B9ED8"/>
<path d="M294.507 210.98C290.201 168.531 266.121 137.568 266.121 137.568L221.826 145.697L238.7 235.329L282.37 227.313C290.045 225.906 295.298 218.784 294.507 210.98Z" fill="#804000"/>
<path d="M179.119 153.537C179.119 153.537 167.468 191.058 178.352 232.3C180.353 239.882 187.769 244.678 195.443 243.269L238.7 235.329L221.826 145.698L179.119 153.537Z" fill="#935635"/>
<path d="M267.657 243.262C248.388 244.123 250.257 219.963 250.257 219.963L223.833 224.813C223.833 224.813 234.068 246.752 215.739 252.791C199.879 258.017 184.251 259 191.881 282.962C209.511 288.625 228.737 290.146 248.213 286.572C268.093 282.923 285.869 274.403 300.548 262.464C299.082 237.944 284.209 242.522 267.657 243.262Z" fill="#E8BC95"/>
<path d="M267.657 243.262C248.388 244.123 250.257 219.963 250.257 219.963L236.289 222.526L248.342 286.547C268.171 282.884 285.901 274.378 300.548 262.464C299.082 237.944 284.209 242.522 267.657 243.262Z" fill="#CC9E7D"/>
<path d="M271.793 157.6C276.394 182.952 262.465 222.556 237.255 227.183C212.044 231.81 185.101 199.708 180.501 174.356C175.9 149.004 192.606 124.7 217.816 120.074C243.025 115.447 267.191 132.248 271.793 157.6Z" fill="#F4E3C3"/>
<path d="M271.793 157.6C267.193 132.248 243.027 115.447 217.816 120.074C217.552 120.122 217.295 120.185 217.034 120.238L237.169 227.195C237.197 227.191 237.226 227.188 237.255 227.184C262.464 222.556 276.394 182.953 271.793 157.6Z" fill="#FED8B2"/>
<path d="M277.832 173.665C275.442 104.963 219.261 112.741 219.261 112.741L214.239 113.663C214.239 113.663 158.947 126.346 180.845 191.466L277.832 173.665Z" fill="#B97850"/>
<path d="M219.261 112.741L215.744 113.385L228.788 182.666L277.833 173.664C275.442 104.962 219.261 112.741 219.261 112.741Z" fill="#935635"/>
<path d="M311.248 294C306.223 276.611 299.239 253.774 298.583 252.054C285.991 261.782 267.381 269.806 245.887 273.751C224.833 277.615 204.99 276.836 189.904 272.454C189.932 274.254 188.623 319.99 187.928 355.652C237.19 352.634 281.007 329.363 311.248 294Z" fill="#FC6F58"/>
<path d="M311.248 294C306.223 276.611 299.239 253.774 298.583 252.054C286 261.775 267.406 269.794 245.931 273.742L257.731 336.425C278.208 325.853 296.373 311.394 311.248 294Z" fill="#F1543F"/>
<path d="M141.839 71.1854C141.839 61.4211 149.71 53.505 159.42 53.505C169.129 53.505 177.001 61.4211 177.001 71.1854C177.001 61.4211 184.872 53.505 194.582 53.505C204.291 53.505 212.163 61.4197 212.163 71.1854C212.163 88.0912 177.001 108.314 177.001 108.314C177.001 108.314 141.839 89.0445 141.839 71.1854Z" fill="#C1321F"/>
<path d="M177 71.1854C177 61.4211 184.872 53.505 194.581 53.505C204.291 53.505 212.162 61.4197 212.162 71.1854C212.162 88.0912 177.001 108.314 177.001 108.314V71.1854H177Z" fill="#A82116"/>
</g>
<defs>
<clipPath id="clip0_16924_10">
<rect width="354" height="356" fill="white"/>
</clipPath>
</defs>
</svg>
