<svg width="73" height="72" viewBox="0 0 73 72" fill="none" xmlns="http://www.w3.org/2000/svg">
<path d="M48.6667 6H24.3334C14.2685 6 6.08337 14.073 6.08337 24V63C6.08337 63.7956 6.40383 64.5587 6.97426 65.1213C7.54468 65.6839 8.31834 66 9.12504 66H48.6667C58.7316 66 66.9167 57.927 66.9167 48V24C66.9167 14.073 58.7316 6 48.6667 6ZM60.8334 48C60.8334 54.618 55.3766 60 48.6667 60H12.1667V24C12.1667 17.382 17.6235 12 24.3334 12H48.6667C55.3766 12 60.8334 17.382 60.8334 24V48Z" fill="#C94F8E"/>
<path d="M21.2916 44.961V50.958H27.3719L44.1893 34.392L38.112 28.398L21.2916 44.961ZM47.0545 31.566L40.9773 25.566L45.6098 21L51.6931 26.997L47.0545 31.566Z" fill="#C94F8E"/>
</svg>
