<svg width="66" height="76" viewBox="0 0 66 76" fill="none" xmlns="http://www.w3.org/2000/svg">
<path d="M19.7732 62.8366L12.014 64.8221C10.3341 65.2519 8.83469 63.5265 9.208 61.5909L10.9323 52.6561C11.188 51.3333 11.7655 50.122 11.5654 50.3512L42.6782 14.5243C44.9181 11.9451 46.8765 11.9451 48.0851 13.3368L53.9189 20.0545C55.1275 21.4463 55.1275 23.7013 52.8876 26.2806L21.7748 62.1074C21.9749 61.8771 20.922 62.5433 19.7732 62.8366Z" fill="#FFA500"/>
<path opacity="0.3" d="M33 76C43.8213 76 52.5938 74.405 52.5938 72.4375C52.5938 70.47 43.8213 68.875 33 68.875C22.1787 68.875 13.4062 70.47 13.4062 72.4375C13.4062 74.405 22.1787 76 33 76Z" fill="black"/>
<path d="M50.4951 29.0356L53.9189 25.0931C55.1275 23.7013 55.1275 21.4462 53.9189 20.0545L48.0851 13.3368C46.8765 11.9451 44.9181 11.9451 43.7095 13.3368L40.2858 17.2793L50.4951 29.0356Z" fill="#FD3C4F"/>
<path d="M51.1262 31.0282L48.6368 33.8948C47.4282 35.2866 45.4698 35.2866 44.2612 33.8948L36.0133 24.3972C34.8047 23.0054 34.8047 20.7504 36.0133 19.3586L38.5027 16.492C39.7113 15.1002 41.6697 15.1002 42.8783 16.492L51.1262 25.9896C52.3349 27.3814 52.3349 29.6376 51.1262 31.0282Z" fill="#A7B3C7"/>
<path d="M21.6139 61.9744L11.4314 51.0673C11.2158 51.5719 11.0395 52.1016 10.9333 52.6561L9.20901 61.5909C8.8357 63.5253 10.3341 65.2519 12.015 64.8221L19.7742 62.8366C20.428 62.6691 21.0447 62.3687 21.6139 61.9744Z" fill="#FFCE29"/>
<path d="M9.88866 58.0664L9.20803 61.5909C8.83472 63.5253 10.3331 65.2519 12.0141 64.8221L15.0748 64.0383L9.88866 58.0664Z" fill="#9C34C2"/>
<path opacity="0.15" d="M53.9199 20.0545L53.2073 19.2339C52.1348 19.4061 51.0984 19.9452 50.2734 20.8952L19.1606 56.7221C19.0739 56.8207 18.9554 56.9074 18.8141 56.9739H18.8151C18.7893 56.9857 18.7635 56.9988 18.7388 57.0095C18.7109 57.0214 18.6831 57.0332 18.6553 57.0404L14.1105 58.2029C11.6118 58.8418 9.95873 61.4721 10.0969 64.3233C10.6177 64.7781 11.2942 65.0061 12.015 64.8209L19.7752 62.8354C20.924 62.5409 21.9759 61.8759 22.8081 60.9187L45.5255 34.7593C46.5898 35.1429 47.7943 34.8662 48.6378 33.8948L51.1273 31.0282C51.9708 30.0568 52.2111 28.6698 51.878 27.4443L53.9209 25.0919C55.1275 23.7013 55.1275 21.4451 53.9199 20.0545Z" fill="black"/>
<path opacity="0.3" d="M19.8752 40.7835C20.8817 41.9437 22.2017 42.5232 23.5207 42.5232C24.8397 42.5232 26.1607 41.9437 27.1662 40.7835L47.356 17.5334C48.18 16.5846 48.6482 15.3912 48.7966 14.1574L48.0841 13.3368C46.8754 11.9451 44.9171 11.9451 43.7085 13.3368L41.6944 15.656C40.6116 15.2273 39.3648 15.4969 38.5006 16.492L36.0112 19.3586C35.147 20.3537 34.9119 21.7882 35.2852 23.0363L19.8752 40.7835Z" fill="white"/>
<path d="M42.3627 20.7349L39.7382 23.7571" stroke="white" stroke-width="3" stroke-miterlimit="10" stroke-linecap="round"/>
</svg>
