<svg width="40" height="40" viewBox="0 0 40 40" fill="none" xmlns="http://www.w3.org/2000/svg">
<path fill-rule="evenodd" clip-rule="evenodd" d="M26.6667 15C26.6667 16.7681 25.9643 18.4638 24.7141 19.714C23.4638 20.9643 21.7682 21.6666 20 21.6666C18.2319 21.6666 16.5362 20.9643 15.286 19.714C14.0358 18.4638 13.3334 16.7681 13.3334 15C13.3334 13.2319 14.0358 11.5362 15.286 10.2859C16.5362 9.03569 18.2319 8.33331 20 8.33331C21.7682 8.33331 23.4638 9.03569 24.7141 10.2859C25.9643 11.5362 26.6667 13.2319 26.6667 15ZM23.3334 15C23.3334 15.884 22.9822 16.7319 22.3571 17.357C21.7319 17.9821 20.8841 18.3333 20 18.3333C19.116 18.3333 18.2681 17.9821 17.643 17.357C17.0179 16.7319 16.6667 15.884 16.6667 15C16.6667 14.1159 17.0179 13.2681 17.643 12.643C18.2681 12.0178 19.116 11.6666 20 11.6666C20.8841 11.6666 21.7319 12.0178 22.3571 12.643C22.9822 13.2681 23.3334 14.1159 23.3334 15Z" fill="#747474"/>
<path fill-rule="evenodd" clip-rule="evenodd" d="M20 1.66666C9.87502 1.66666 1.66669 9.87499 1.66669 20C1.66669 30.125 9.87502 38.3333 20 38.3333C30.125 38.3333 38.3334 30.125 38.3334 20C38.3334 9.87499 30.125 1.66666 20 1.66666ZM5.00002 20C5.00002 23.4833 6.18835 26.69 8.18002 29.2367C9.57874 27.3998 11.3832 25.9112 13.4524 24.8872C15.5216 23.8631 17.7996 23.3313 20.1084 23.3333C22.3872 23.3312 24.6365 23.8492 26.6849 24.848C28.7333 25.8467 30.5266 27.2999 31.9284 29.0967C33.3724 27.2027 34.3447 24.992 34.7648 22.6476C35.1849 20.3033 35.0407 17.8925 34.3442 15.615C33.6476 13.3374 32.4187 11.2584 30.7592 9.55005C29.0996 7.8417 27.0571 6.55309 24.8007 5.79084C22.5442 5.02859 20.1387 4.81461 17.7831 5.16661C15.4276 5.51861 13.1897 6.42648 11.2546 7.81508C9.3196 9.20368 7.74304 11.0331 6.6554 13.152C5.56777 15.2709 5.00032 17.6183 5.00002 20ZM20 35C16.5566 35.0052 13.2171 33.8206 10.5467 31.6467C11.6216 30.1079 13.0523 28.8515 14.717 27.9845C16.3818 27.1174 18.2313 26.6653 20.1084 26.6667C21.962 26.6652 23.7892 27.1059 25.4382 27.9524C27.0873 28.7988 28.5106 30.0264 29.59 31.5333C26.8989 33.7778 23.5043 35.0049 20 35Z" fill="#747474"/>
</svg>
