<svg width="50" height="45" viewBox="0 0 50 45" fill="none" xmlns="http://www.w3.org/2000/svg">
<path d="M6.76775 4.4566L44.3928 20.6518C44.773 20.8152 45.0942 21.0722 45.319 21.393C45.5438 21.7138 45.6631 22.0854 45.6631 22.4646C45.6631 22.8439 45.5438 23.2155 45.319 23.5363C45.0942 23.8571 44.773 24.1141 44.3928 24.2775L6.76775 40.4727C6.38204 40.6389 5.95138 40.702 5.527 40.6543C5.10262 40.6066 4.7024 40.4502 4.37394 40.2037C4.04549 39.9572 3.80263 39.631 3.67427 39.2638C3.54591 38.8967 3.53745 38.504 3.64989 38.1327L7.41418 25.7127C7.46026 25.5605 7.5551 25.4238 7.68688 25.3198C7.81867 25.2158 7.98156 25.1489 8.15525 25.1277L26.3874 22.8986C26.4636 22.8888 26.5357 22.8615 26.5967 22.8192C26.6577 22.777 26.7056 22.7213 26.7356 22.6575L26.7678 22.5579C26.7818 22.4681 26.7618 22.3767 26.7109 22.2986C26.66 22.2204 26.5812 22.16 26.4874 22.1271L26.3892 22.103L8.17489 19.8739C8.00152 19.8524 7.83902 19.7854 7.70758 19.6814C7.57614 19.5774 7.48156 19.4409 7.43561 19.2889L3.64989 6.79821C3.53699 6.42674 3.54511 6.03389 3.67328 5.66646C3.80145 5.29902 4.04426 4.97249 4.3728 4.72574C4.70134 4.479 5.10176 4.32245 5.52637 4.27473C5.95098 4.22701 6.38188 4.29014 6.76775 4.4566Z" fill="white"/>
</svg>
