<svg width="40" height="40" viewBox="0 0 40 40" fill="none" xmlns="http://www.w3.org/2000/svg">
<path d="M20.0077 14.554C18.5964 14.554 17.2748 15.0726 16.2742 16.0203C15.2782 16.9681 14.726 18.2199 14.726 19.5566C14.726 20.8933 15.2782 22.145 16.2742 23.0928C17.2748 24.0361 18.5964 24.5591 20.0077 24.5591C21.419 24.5591 22.7406 24.0361 23.7412 23.0928C24.7371 22.145 25.2894 20.8933 25.2894 19.5566C25.2894 18.2199 24.7371 16.9681 23.7412 16.0203C23.2525 15.5539 22.6707 15.184 22.0298 14.9323C21.3889 14.6806 20.7015 14.552 20.0077 14.554ZM39.4683 25.0822L36.3814 22.5832C36.5277 21.7337 36.6032 20.8664 36.6032 20.0036C36.6032 19.1408 36.5277 18.269 36.3814 17.4241L39.4683 14.925C39.7014 14.736 39.8683 14.4841 39.9468 14.203C40.0252 13.9219 40.0114 13.6249 39.9072 13.3514L39.8647 13.2352C39.0152 10.9851 37.7423 8.89939 36.1076 7.07917L36.0226 6.98529C35.8242 6.76423 35.5596 6.60532 35.2639 6.5295C34.9681 6.45368 34.655 6.46452 34.3659 6.56058L30.5333 7.85258C29.1173 6.75282 27.5408 5.88552 25.8322 5.28199L25.0911 1.48647C25.0352 1.20054 24.8888 0.937492 24.6713 0.732272C24.4537 0.527051 24.1755 0.389373 23.8734 0.337529L23.7459 0.315176C21.2915 -0.105059 18.705 -0.105059 16.2506 0.315176L16.1231 0.337529C15.821 0.389373 15.5427 0.527051 15.3252 0.732272C15.1077 0.937492 14.9613 1.20054 14.9054 1.48647L14.1596 5.29988C12.4671 5.90822 10.8905 6.77341 9.49151 7.86152L5.63054 6.56058C5.34152 6.46376 5.02823 6.45253 4.73231 6.52839C4.43638 6.60425 4.17184 6.76361 3.97382 6.98529L3.88886 7.07917C2.25712 8.90133 0.98451 10.9865 0.13174 13.2352L0.0892604 13.3514C-0.12314 13.9102 0.0515005 14.5361 0.528221 14.925L3.65286 17.4509C3.50654 18.2914 3.43574 19.1497 3.43574 19.9992C3.43574 20.8575 3.50654 21.7159 3.65286 22.5474L0.537661 25.0733C0.304472 25.2623 0.137576 25.5142 0.0591655 25.7953C-0.0192455 26.0764 -0.00545614 26.3734 0.0987002 26.6469L0.14118 26.7631C0.995501 29.0119 2.25574 31.0907 3.8983 32.9191L3.98326 33.013C4.18176 33.2341 4.44631 33.393 4.74206 33.4688C5.03781 33.5446 5.35087 33.5338 5.63999 33.4377L9.50095 32.1368C10.9075 33.2321 12.4746 34.0994 14.169 34.6984L14.9148 38.5118C14.9707 38.7978 15.1171 39.0608 15.3347 39.266C15.5522 39.4713 15.8305 39.6089 16.1326 39.6608L16.26 39.6831C18.7385 40.1056 21.2768 40.1056 23.7554 39.6831L23.8828 39.6608C24.1849 39.6089 24.4632 39.4713 24.6807 39.266C24.8982 39.0608 25.0447 38.7978 25.1006 38.5118L25.8416 34.7163C27.5502 34.1083 29.1267 33.2455 30.5427 32.1457L34.3754 33.4377C34.6644 33.5345 34.9777 33.5458 35.2736 33.4699C35.5695 33.3941 35.8341 33.2347 36.0321 33.013L36.1171 32.9191C37.7596 31.0817 39.0199 29.0119 39.8742 26.7631L39.9167 26.6469C40.1196 26.0926 39.945 25.4711 39.4683 25.0822ZM20.0077 27.4158C15.4246 27.4158 11.7099 23.8975 11.7099 19.5566C11.7099 15.2156 15.4246 11.6973 20.0077 11.6973C24.5908 11.6973 28.3054 15.2156 28.3054 19.5566C28.3054 23.8975 24.5908 27.4158 20.0077 27.4158Z" fill="#747474"/>
</svg>
