<svg width="119" height="113" viewBox="0 0 119 113" fill="none" xmlns="http://www.w3.org/2000/svg">
<path d="M84.1388 76.405C95.6257 78.9904 103.856 85.9665 103.856 94.1666" stroke="white" stroke-width="2" stroke-linecap="round" stroke-linejoin="round"/>
<path d="M15.1303 94.1667C15.1303 83.7653 28.3715 75.3333 44.7054 75.3333C61.0392 75.3333 74.2804 83.7653 74.2804 94.1667" stroke="white" stroke-width="2" stroke-linecap="round" stroke-linejoin="round"/>
<path d="M74.2805 61.2083C85.1697 61.2083 93.9972 52.7764 93.9972 42.375C93.9972 31.9736 85.1697 23.5417 74.2805 23.5417" stroke="white" stroke-width="2" stroke-linecap="round" stroke-linejoin="round"/>
<path d="M44.7054 61.2083C55.5946 61.2083 64.4221 52.7764 64.4221 42.375C64.4221 31.9736 55.5946 23.5417 44.7054 23.5417C33.8162 23.5417 24.9887 31.9736 24.9887 42.375C24.9887 52.7764 33.8162 61.2083 44.7054 61.2083Z" stroke="white" stroke-width="2" stroke-linecap="round" stroke-linejoin="round"/>
</svg>
